<svg enable-background="new 0 0 44 44" viewBox="0 0 44 44" xmlns="http://www.w3.org/2000/svg"><g fill="#fff"><path d="m22 .5c-11.8 0-21.4 9.6-21.4 21.4s9.6 21.4 21.4 21.4c.6 0 1.3 0 1.9-.1s1.2-.1 1.8-.2h.2c10.9-2 18.4-12 17.4-23-1-11.1-10.2-19.5-21.3-19.5zm-1.7 41.3c-.6 0-1.2-.1-1.7-.2h-.1c-.5-.1-1.1-.2-1.6-.4h-.1c-.5-.1-1-.3-1.5-.5-.1 0-.1 0-.2-.1-.5-.2-1-.4-1.4-.6-.1 0-.1-.1-.2-.1-.5-.2-.9-.5-1.4-.7-.1 0-.1-.1-.2-.1-.4-.3-.9-.5-1.3-.8-.1 0-.1-.1-.2-.1-.4-.3-.8-.6-1.2-.9l-.1-.1v-6c0-4.3 3.5-7.8 7.8-7.8h10c4.3 0 7.8 3.5 7.8 7.8v6l-.1.1c-.4.3-.8.6-1.2.9-.1 0-.1.1-.2.1-.4.3-.9.6-1.3.8-.1 0-.1.1-.2.1-.5.3-.9.5-1.4.7-.1 0-.1 0-.2.1-.5.2-1 .4-1.4.6 0 0-.1 0-.1.1-.5.2-1 .3-1.5.5h-.1c-.5.1-1.1.3-1.6.4h-.1c-.5.1-1.1.2-1.7.2h-.1c-.6 0-1.1.1-1.7.1-.3 0-.9-.1-1.5-.1zm16-5.9v-4.7c0-5.1-4.1-9.3-9.3-9.3h-10c-5.1 0-9.3 4.1-9.3 9.3v4.7c-7.6-7.9-7.5-20.4.3-28.2 7.7-7.7 20.3-7.7 28.1 0 7.8 7.8 7.8 20.3.2 28.2z"/><path d="m22 6.2c-3.9 0-7.1 3.2-7.1 7.1s3.2 7.1 7.1 7.1 7.1-3.2 7.1-7.1-3.1-7.1-7.1-7.1zm0 12.9c-3.1 0-5.7-2.6-5.7-5.7s2.6-5.7 5.7-5.7 5.7 2.6 5.7 5.7-2.5 5.7-5.7 5.7z"/></g></svg>