<?xml version="1.0" encoding="utf-8"?>
<!-- Generator: Adobe Illustrator 23.0.3, SVG Export Plug-In . SVG Version: 6.00 Build 0)  -->
<svg version="1.1" id="Layer_1" xmlns="http://www.w3.org/2000/svg" xmlns:xlink="http://www.w3.org/1999/xlink" x="0px" y="0px"
	 viewBox="0 0 44 44" style="enable-background:new 0 0 44 44;" xml:space="preserve">
<style type="text/css">
	.st0{fill:#FFFFFF;}
</style>
<g>
	<path class="st0" d="M21.9,31.5c-3.5,0-7,0-10.5,0c-0.8,0-1.6,0.1-1.9-0.9c-0.2-0.8,0.5-1.1,1-1.6c2.7-2.5,3.7-5.7,3.5-9.2
		c-0.2-4.3,1.5-7.1,4.8-10.1c3.1-2.7,3.6-2.8,6.7,0c3.4,3,5.1,5.8,4.9,10.1c-0.2,3.5,0.9,6.7,3.5,9.2c0.5,0.5,1.2,0.7,1,1.6
		c-0.3,1-1.1,0.9-1.9,0.9C29.3,31.5,25.6,31.5,21.9,31.5z"/>
	<path class="st0" d="M9.2,12.8c1.3,0.3,1.5,1.1,1.1,2c-1.2,2.6-1.2,5.2,0,7.8c0.3,0.7,0.2,1.3-0.5,1.7c-0.6,0.3-1.1,0-1.5-0.5
		c-1.8-2-1.7-8.6,0.1-10.5C8.6,13.1,9,13,9.2,12.8z"/>
	<path class="st0" d="M37.3,18.7c0,1.7-0.5,3.2-1.1,4.8c-0.3,0.7-0.7,1.2-1.5,0.9c-0.8-0.3-1-1-0.7-1.7c1.3-2.7,1.3-5.4,0-8.1
		c-0.3-0.7-0.1-1.4,0.7-1.6c0.8-0.3,1.2,0.3,1.5,1C36.9,15.4,37.4,17,37.3,18.7z"/>
	<path class="st0" d="M22.2,33.7c0.8,0.3,3.1-0.9,3.2,1.1c0.1,1.6-1.5,2.6-3.3,2.5c-1.7,0-3.4-1.1-3.2-2.7
		C19.1,32.9,21,34,22.2,33.7z"/>
</g>
</svg>
