<svg enable-background="new 0 0 50 50" viewBox="0 0 50 50" xmlns="http://www.w3.org/2000/svg"><path d="m48.61 8.07c-6.21-.08-12.43-.17-18.65-.26-6.08-.08-12.17-.17-18.26-.25-.41 0-.58-.14-.69-.53-.25-.86-.54-1.7-.84-2.54-.66-1.88-1.92-3.23-3.88-3.53-1.72-.26-3.5-.14-5.25-.14-.43 0-.73.34-.86.77-.25.81.3 1.48 1.28 1.5 1.12.02 2.24 0 3.37 0 1.67.01 2.67.73 3.2 2.32 2.31 6.95 4.6 13.91 6.94 20.86.25.76.21 1.39-.11 2.12-1.66 3.77.94 7.75 5.06 7.75h21.87c.23 0 .46-.01.68-.06.51-.13.84-.6.82-1.13-.01-.53-.36-.96-.89-1.07-.25-.04-.52-.06-.78-.06h-21.63c-.69 0-1.36-.09-1.95-.5-1.28-.9-1.68-2.45-1.06-3.94.21-.52.45-.82 1.08-.87 2.65-.23 5.28-.52 7.92-.8 5.21-.54 10.42-1.06 15.62-1.65 2.73-.31 4.71-1.77 5.49-4.44.79-2.73 1.37-5.52 2.04-8.28.32-1.29.65-2.58.98-3.87v-.58c-.34-.57-.84-.81-1.5-.82zm-2.13 6.5c-.48 1.97-.96 3.94-1.45 5.92-.48 1.97-1.72 3.05-3.75 3.25-6.31.66-12.62 1.31-18.93 1.96-1.53.16-3.07.31-4.61.49-.31.03-.45-.05-.55-.36-1.69-5.17-3.4-10.34-5.1-15.51-.04-.13-.08-.27-.12-.45 11.85.18 23.66.35 35.52.52-.35 1.44-.68 2.81-1.01 4.18z" fill="#4f4f4f"/><path d="m47.49 10.39c-.35 1.44-.68 2.81-1.01 4.18-.48 1.97-.96 3.94-1.45 5.92-.48 1.97-1.72 3.05-3.75 3.25-6.31.66-12.62 1.31-18.93 1.96-1.53.16-3.07.31-4.61.49-.31.03-.45-.05-.55-.36-1.69-5.17-3.4-10.34-5.1-15.51-.04-.13-.08-.27-.12-.45 11.85.18 23.66.35 35.52.52z" fill="#eaab3c"/><path d="m16.07 38.98c-2.86-.01-5.22 2.35-5.23 5.22 0 2.88 2.32 5.22 5.2 5.22 2.87.01 5.23-2.34 5.24-5.2.01-2.84-2.36-5.23-5.21-5.24zm-.02 8.12c-1.59-.01-2.87-1.28-2.88-2.88-.01-1.61 1.31-2.92 2.91-2.91 1.58.02 2.88 1.33 2.87 2.91s-1.31 2.88-2.9 2.88z" fill="#4f4f4f"/><path d="m18.95 44.22c-.01 1.58-1.31 2.88-2.9 2.88-1.59-.01-2.87-1.28-2.88-2.88-.01-1.61 1.31-2.92 2.91-2.91 1.58.02 2.88 1.33 2.87 2.91z" fill="#eaab3c"/><path d="m38.09 38.98c-2.86.01-5.21 2.36-5.2 5.23 0 2.89 2.32 5.21 5.21 5.21 2.88 0 5.21-2.33 5.21-5.21 0-2.87-2.36-5.23-5.22-5.23zm.02 8.11c-1.59.01-2.89-1.26-2.91-2.86-.03-1.57 1.32-2.93 2.91-2.92 1.57.01 2.89 1.33 2.89 2.9-.01 1.58-1.3 2.88-2.89 2.88z" fill="#4f4f4f"/><path d="m41 44.21c-.01 1.58-1.3 2.88-2.89 2.88-1.59.01-2.89-1.26-2.91-2.86-.03-1.57 1.32-2.93 2.91-2.92 1.57.01 2.89 1.33 2.89 2.9z" fill="#eaab3c"/></svg>