<svg enable-background="new 0 0 44 44" viewBox="0 0 44 44" xmlns="http://www.w3.org/2000/svg"><path d="m8.82 27.74h32.54c.35 0 .64-.29.64-.64v-21.05c0-.35-.29-.64-.64-.64h-32.54c-.35 0-.64.29-.64.64v21.05c0 .36.29.64.64.64z" fill="#f95055"/><path d="m3.08 38.59h32.54c.35 0 .64-.29.64-.64v-19.14c0-.35-.29-.64-.64-.64h-32.54c-.35 0-.64.29-.64.64v19.14c0 .35.29.64.64.64z" fill="#fdcd3b"/><path d="m35.62 39.23h-32.54c-.7 0-1.28-.57-1.28-1.28v-19.14c0-.7.57-1.28 1.28-1.28h32.54c.7 0 1.28.57 1.28 1.28v19.14c0 .71-.58 1.28-1.28 1.28zm-32.54-20.42v19.14h32.54v-19.14z"/><path d="m13.92 22.64v5.1c0 .35-.29.64-.64.64h-6.37c-.35 0-.64-.29-.64-.64v-5.1c0-.35.29-.64.64-.64h6.38c.35 0 .63.29.63.64z" fill="#f95055"/><path d="m13.29 21.36h-6.38c-.7 0-1.28.57-1.28 1.28v5.1c0 .7.57 1.28 1.28 1.28h6.38c.7 0 1.28-.57 1.28-1.28v-5.1c-.01-.71-.58-1.28-1.28-1.28zm0 3.19h-2.55v-1.91h2.55zm-3.83-1.91v1.91h-2.55v-1.91zm-2.55 3.19h2.55v1.91h-2.55zm3.82 1.91v-1.91h2.55v1.91z"/><path d="m31.79 30.93v1.28c0 1.41-1.14 2.55-2.55 2.55h-6.38v-1.28c0-1.41 1.14-2.55 2.55-2.55z" fill="#f95055"/><path d="m29.24 35.4h-6.38c-.35 0-.64-.29-.64-.64v-1.28c0-1.76 1.43-3.19 3.19-3.19h6.38c.35 0 .64.29.64.64v1.28c0 1.76-1.43 3.19-3.19 3.19zm-5.74-1.28h5.74c1.06 0 1.91-.86 1.91-1.91v-.64h-5.74c-1.06 0-1.91.86-1.91 1.91z"/><path d="m17.12 21.36h10.21v1.28h-10.21z"/><path d="m29.88 21.36h3.83v1.28h-3.83z"/><path d="m17.12 24.55h5.1v1.28h-5.1z"/><path d="m23.5 24.55h9.57v1.28h-9.57z"/><path d="m5.63 31.57h5.1v1.28h-5.1z"/><path d="m13.29 31.57h5.1v1.28h-5.1z"/><path d="m13.29 14.34h-5.11v-5.1h33.82v5.1h-22.33z" fill="#fdcd3b"/><path d="m41.36 4.77h-32.54c-.7 0-1.28.57-1.28 1.28v10.21h1.28v-1.28h4.47v-1.28h-4.47v-3.82h32.54v3.83h-21.69v1.28h21.69v12.11h-3.19v1.28h3.19c.7 0 1.28-.57 1.28-1.28v-21.05c0-.71-.57-1.28-1.28-1.28zm-32.54 3.83v-2.55h32.54v2.55z"/><path d="m14.56 13.7h3.83v1.28h-3.83z"/></svg>