<?xml version="1.0" encoding="utf-8"?>
<!-- Generator: Adobe Illustrator 23.0.3, SVG Export Plug-In . SVG Version: 6.00 Build 0)  -->
<svg version="1.1" id="Capa_1" xmlns="http://www.w3.org/2000/svg" xmlns:xlink="http://www.w3.org/1999/xlink" x="0px" y="0px"
	 viewBox="0 0 44 44" style="enable-background:new 0 0 44 44;" xml:space="preserve">
<style type="text/css">
	.st0{fill:#FFFFFF;}
</style>
<g>
	<path class="st0" d="M6,10.9L6,10.9c-0.1,0-0.1,0.1-0.2,0.1l-5.2,8.2c-0.1,0.2,0,0.4,0.2,0.4l4.5,1.5c0.1,0,0.2,0.2,0.2,0.3v8.8
		c0,0.1,0.1,0.2,0.2,0.3l16.1,5.3c0.1,0,0.1,0,0.2,0L38,30.5c0.1,0,0.2-0.2,0.2-0.3v-8.8c0-0.1,0.1-0.2,0.2-0.3l4.4-1.5
		c0.2-0.1,0.3-0.3,0.1-0.5L37.1,11c0,0,0,0,0,0l-0.2-0.2c-0.1-0.1-0.2-0.1-0.3-0.1c-0.3,0.1-0.8,0.3-0.9,0.3L33,11.9l-11.1,3.7
		c-0.1,0-0.1,0-0.2,0l-11.2-3.5 M4.4,17.9l2.7-4.2c0.1-0.1,0.2-0.2,0.3-0.1l12.1,4c0.2,0.1,0.3,0.3,0.2,0.4L17,22.2
		c-0.1,0.1-0.2,0.2-0.3,0.1l-12.1-4C4.4,18.2,4.3,18,4.4,17.9z M20.2,32.7l-12-4c-0.1,0-0.2-0.2-0.2-0.3v-5.9c0-0.2,0.2-0.3,0.4-0.3
		l9.5,3.1c0.1,0,0.3,0,0.3-0.1l1.9-3c0.2-0.3,0.5-0.1,0.5,0.2v10C20.6,32.6,20.4,32.7,20.2,32.7z M35.5,28.7l-12,4
		c-0.2,0.1-0.4-0.1-0.4-0.3v-10c0-0.3,0.4-0.4,0.5-0.2l1.9,3c0.1,0.1,0.2,0.2,0.3,0.1l9.5-3.1c0.2-0.1,0.4,0.1,0.4,0.3v5.9
		C35.7,28.5,35.6,28.6,35.5,28.7z M26.6,22.2L23.9,18c-0.1-0.2,0-0.4,0.2-0.4l12.1-4c0.1,0,0.3,0,0.3,0.1l2.7,4.2
		c0.1,0.2,0,0.4-0.2,0.4l-12.1,4C26.8,22.4,26.7,22.3,26.6,22.2z"/>
</g>
</svg>
