<svg enable-background="new 0 0 126.13 65.08" viewBox="0 0 126.13 65.08" xmlns="http://www.w3.org/2000/svg" xmlns:xlink="http://www.w3.org/1999/xlink"><linearGradient id="a" gradientUnits="userSpaceOnUse" x1="1.1182" x2="52.1135" y1="32.5779" y2="32.5779"><stop offset=".1" stop-color="#5a439a"/><stop offset=".4" stop-color="#e42f88"/><stop offset=".6" stop-color="#e42528"/><stop offset=".9" stop-color="#fbb235"/></linearGradient><g fill="#4f4f4f"><path d="m36.8 41.15h.7v4.67c.59-.72 1.33-1.09 2.21-1.09.48 0 .91.12 1.29.36s.66.57.85.99c.18.42.28 1.05.28 1.88v4.09h-1.43v-4.44c0-.53-.13-.95-.39-1.27s-.6-.48-1.02-.48c-.31 0-.61.08-.88.24s-.58.43-.91.8v5.15h-1.42v-10.18c-.01-.4.32-.72.72-.72z"/><path d="m47.54 44.86c1.09 0 2 .35 2.73 1.06.72.71 1.09 1.59 1.09 2.66 0 1.04-.37 1.9-1.1 2.58s-1.66 1.03-2.77 1.03c-1.08 0-1.98-.35-2.7-1.04-.72-.7-1.09-1.56-1.09-2.6 0-1.05.37-1.93 1.1-2.63.72-.71 1.64-1.06 2.74-1.06zm-.08 1.28c-.68 0-1.24.22-1.68.67s-.66 1.02-.66 1.71.22 1.25.67 1.68 1.02.65 1.73.65c.7 0 1.27-.22 1.71-.66.45-.44.67-1 .67-1.69 0-.68-.23-1.25-.7-1.69-.45-.44-1.04-.67-1.74-.67z"/><path d="m57.72 41.15h.71c.4 0 .72.32.72.72v10.19h-3.04c-1.06 0-1.91-.34-2.54-1.01s-.95-1.57-.95-2.7c0-1.06.33-1.93 1-2.61.66-.68 1.51-1.02 2.54-1.02.48 0 1 .1 1.56.3zm0 9.69v-4.55c-.44-.22-.89-.34-1.34-.34-.71 0-1.27.23-1.69.7-.42.46-.63 1.09-.63 1.87 0 .74.18 1.31.55 1.71.22.24.45.4.7.48.24.08.68.13 1.32.13z"/><path d="m61.78 41.15h.7v4.67c.59-.72 1.33-1.09 2.21-1.09.48 0 .91.12 1.29.36s.66.57.85.99c.18.42.28 1.05.28 1.88v4.09h-1.42v-4.44c0-.53-.13-.95-.39-1.27s-.6-.48-1.02-.48c-.31 0-.61.08-.88.24s-.58.43-.91.8v5.15h-1.42v-10.18c-.02-.4.31-.72.71-.72z"/><path d="m72.52 44.86c1.09 0 2 .35 2.73 1.06.72.71 1.09 1.59 1.09 2.66 0 1.04-.37 1.9-1.1 2.58s-1.66 1.03-2.77 1.03c-1.08 0-1.98-.35-2.7-1.04-.72-.7-1.09-1.56-1.09-2.6 0-1.05.37-1.93 1.1-2.63.72-.71 1.63-1.06 2.74-1.06zm-.08 1.28c-.68 0-1.24.22-1.68.67s-.66 1.02-.66 1.71.22 1.25.67 1.68 1.02.65 1.73.65c.7 0 1.27-.22 1.71-.66.45-.44.67-1 .67-1.69 0-.68-.23-1.25-.7-1.69-.45-.44-1.04-.67-1.74-.67z"/><path d="m82.7 41.15h.71c.4 0 .72.32.72.72v10.19h-3.04c-1.06 0-1.91-.34-2.54-1.01s-.95-1.57-.95-2.7c0-1.06.33-1.93 1-2.61.66-.68 1.51-1.02 2.54-1.02.48 0 1 .1 1.56.3zm0 9.69v-4.55c-.44-.22-.89-.34-1.34-.34-.71 0-1.27.23-1.69.7-.42.46-.63 1.09-.63 1.87 0 .74.18 1.31.55 1.71.22.24.45.4.7.48.24.08.68.13 1.32.13z"/><path d="m96.39 46.84v5.22h-1.43v-4c0-.8-.11-1.35-.32-1.67s-.59-.47-1.12-.47c-.3 0-.57.07-.82.2-.25.14-.53.37-.85.72v5.22h-1.42v-6.46c0-.4.32-.72.72-.72h.7v.95c.72-.72 1.43-1.09 2.12-1.09.91 0 1.62.43 2.12 1.3.76-.87 1.55-1.31 2.38-1.31.7 0 1.27.26 1.72.77s.68 1.29.68 2.34v4.24h-1.42v-4.26c0-.6-.12-1.06-.37-1.37-.24-.32-.6-.48-1.05-.48-.58-.02-1.13.28-1.64.87z"/><path d="m107.35 47.74v3.05c0 .24.08.37.25.37s.44-.13.8-.38v.87c-.32.21-.58.35-.78.43s-.4.11-.61.11c-.61 0-.97-.24-1.08-.72-.6.47-1.25.7-1.93.7-.5 0-.92-.17-1.25-.5s-.5-.75-.5-1.25c0-.45.16-.86.49-1.21s.79-.64 1.39-.85l1.82-.62v-.38c0-.86-.43-1.3-1.3-1.3-.78 0-1.53.4-2.27 1.2v-1.55c.55-.65 1.35-.98 2.38-.98.78 0 1.4.2 1.87.61.16.13.3.3.42.52.13.22.2.43.24.65s.06.63.06 1.23zm-1.4 2.9v-2.13l-.95.37c-.48.19-.83.39-1.03.58-.2.2-.3.44-.3.73 0 .3.09.54.28.73s.44.28.74.28c.46-.01.88-.19 1.26-.56z"/><path d="m111.19 44.88v1.65l.08-.13c.69-1.11 1.37-1.66 2.06-1.66.36 0 .73.12 1.11.37.33.21.45.65.24.99l-.42.7c-.49-.47-.95-.7-1.37-.7-.46 0-.85.22-1.19.66s-.5.96-.5 1.55v3.76h-1.43v-7.19z"/><path d="m115.31 46.02 1.58-2.8c.29-.52 1.09-.31 1.09.29v1.37h2.27v1.28h-2.27v3.52c0 .82.34 1.23 1.02 1.23.23 0 .47-.03.71-.1.46-.13.91.22.91.7v.23c-.55.31-1.14.46-1.79.46s-1.19-.19-1.62-.57c-.14-.11-.25-.24-.34-.39-.09-.14-.16-.33-.22-.56s-.09-.67-.09-1.32v-3.19h-1.25z"/></g><path d="m3.61 15.23c-.78-.33-1.61-.58-2.49-.74 3.69-.9 7.13-.31 10.46 1.34-.93-1.87-2.3-3.21-4.19-4.03-1.92-.83-3.88-.61-5.91-.19 1.03-1.57 5.14-3.15 7.74-3 3.03.17 5.42 1.51 7.15 4.05.64-2.51-3.69-7.13-7.92-7.35 1.69-.52 3.41-.74 5.18-.73 4.14.03 6.56 2.38 8.08 5.95.17.4.35.8.56 1.28.43-1.51-.72-4.87-2.19-6.61-1.62-1.91-3.7-2.89-6.23-3.23.74-.2 1.48-.44 2.23-.61 1.64-.36 3.29-.38 4.92-.02 2.69.59 4.38 2.38 5.56 4.75.47.95.85 1.95 1.28 2.93.72-1.13.15-2.97-1.98-6.7.94.59 1.91 1.13 2.81 1.78 1.82 1.32 3.22 2.97 3.69 5.25.27 1.31.11 2.57-.36 3.81-.16.42-.28.86-.35 1.31 1.51-1.24 2.25-2.78 1.96-4.75 1.7 3.76.61 7.19-1.17 10.57 1.14-.44 1.82-1.34 2.5-2.27.72-1 .67-2.13.7-3.28.87 1.39 1.27 2.89 1.08 4.5-.19 1.66-1.04 3.02-2.23 4.17-1.15 1.12-2.55 1.84-4.05 2.45 7.19 2.23 14.95 5.13 21.68 8.46-1.86-.66-4.47-1.59-6.36-2.18-4.39-1.37-8.79-2.69-13.2-3.98-.98-.28-2.02-.36-3.03-.48-.25-.03-.53.15-.8.35 7.29 2.61 14.49 5.28 21.36 8.43-2.82-.92-5.77-2.25-8.77-3.08-3.03-.83-5.92-1.6-9.01-2.17-2.39-.44-4.81-.32-7.18.33-.26.07-.51.16-.75.28-.68.33-.81.62-.54 1.34.86 2.35 1.75 4.68 2.62 7.03.69 1.86.94 3.76.49 5.72-.37 1.63-1.3 2.93-2.37 4.14-2.31 2.62-5.07 4.71-7.89 6.74-3.84 2.76-7.86 5.2-12.23 7.05-.16.07-.31.13-.57.24 2.12-1.45 4.19-2.78 6.16-4.24 1.85-1.37 3.58-2.89 5.38-4.33.39-.31.38-.55.09-.94-1.01-1.35-2.32-2.34-3.71-3.26-.68-.45-1.38-.88-2.22-1.41 3.25-.07 5.72 1.2 7.89 3.48.88-1.16 1.73-2.24 2.52-3.36.13-.18.04-.64-.12-.85-.36-.53-.75-1.09-1.26-1.47-1.73-1.3-3.51-2.53-5.28-3.79-.19-.14-.39-.25-.75-.48 3.55-.16 6.28 1.17 8.64 3.61.6-1.63.72-3.18.32-4.75-.78-3.08-2.98-4.71-5.84-5.62-1.64-.52-3.32-.67-5.03-.55-.23.02-.47 0-.76 0 .61-.74 1.21-1.4 1.73-2.11 1.37-1.88 2.39-3.92 2.66-6.28.13-1.18-.19-2.26-.71-3.29-1.41-2.83-3.61-4.98-6.1-6.86-1.21-.92-2.48-1.76-3.89-2.35m20.5 9.69c.61.03 1.09-.43 1.12-1.07.03-.56-.52-1.14-1.08-1.15-.55-.01-1.18.52-1.22 1.04-.06.6.48 1.14 1.18 1.18z" fill="url(#a)"/><path d="m67.79 30.43v2.58c0 .31-.02.57-.07.78s-.13.38-.25.51-.28.22-.47.28c-.19.05-.44.08-.73.08h-4.54c-.62 0-1.1-.13-1.45-.38s-.53-.65-.54-1.19c0-.18.02-.4.06-.66s.12-.57.24-.94l-.82-.25c-.29-.09-.6.07-.69.36-.07.22-.13.44-.17.66-.07.39-.11.74-.11 1.05 0 .46.08.85.24 1.18s.38.59.66.8.61.36.99.45c.38.1.79.14 1.23.14h5.44c.86 0 1.49-.19 1.88-.59.39-.39.59-.98.59-1.78v-3.65h-.94c-.3.02-.55.27-.55.57z" fill="#4f4f4f"/><path d="m62.71 29.35c.24 0 .43-.08.58-.23.15-.16.22-.35.22-.59s-.07-.43-.22-.59c-.15-.15-.34-.23-.58-.23s-.44.08-.59.23-.23.35-.23.59.08.44.23.59.35.23.59.23z" fill="#4f4f4f"/><path d="m64.79 29.35c.24 0 .43-.08.58-.23.15-.16.22-.35.22-.59s-.07-.43-.22-.59c-.15-.15-.34-.23-.58-.23s-.44.08-.59.23c-.16.15-.23.35-.23.59s.08.44.23.59.35.23.59.23z" fill="#4f4f4f"/><path d="m71.94 30.43v5.1c0 .5-.08.88-.24 1.12s-.45.37-.87.38c-.18 0-.39-.02-.62-.07l-.12.75c-.04.26.14.51.4.55h.01c.19.02.39.03.59.03.36 0 .68-.05.97-.14.29-.1.54-.25.74-.46.21-.21.36-.49.47-.83s.17-.76.17-1.25v-5.74h-.94c-.31.01-.56.26-.56.56z" fill="#4f4f4f"/><path d="m85.51 31.67c-.11-.37-.29-.7-.53-.98s-.55-.5-.92-.67c-.38-.17-.83-.25-1.36-.25-.95.02-1.67.35-2.18.99s-.81 1.53-.9 2.67c-.04.38-.13.67-.29.89s-.39.33-.72.34h-.36c-.17 0-.33-.02-.48-.06-.16-.04-.3-.1-.42-.19s-.22-.22-.3-.4c-.07-.17-.11-.38-.11-.62v-7.63h-.94c-.31 0-.56.25-.56.56v7.46c0 .41.08.76.24 1.04s.38.5.65.65.59.26.96.32c.35.06.73.09 1.14.09h.03.56c.31 0 .6-.06.87-.18s.49-.33.67-.63c.41.34.8.57 1.15.69s.72.18 1.11.18.76-.07 1.11-.2c.34-.13.65-.33.91-.59s.47-.58.62-.97.23-.84.23-1.36c-.01-.39-.07-.78-.18-1.15zm-1.41 1.87c-.05.21-.13.39-.24.56s-.25.31-.43.41c-.18.11-.4.16-.65.16-.37 0-.69-.08-.96-.23-.28-.15-.55-.36-.83-.61.05-.85.23-1.53.52-2.02s.69-.75 1.22-.76c.44 0 .79.15 1.06.45s.4.77.4 1.4c-.01.23-.04.44-.09.64z" fill="#4f4f4f"/><path d="m120.37 32.47c-.05-.36-.14-.68-.28-.97-.02-.04-.03-.07-.05-.1-.45-.79-1.13-1.24-2.02-1.36-.76-.1-2.01.27-2.35.71 2.57.04 3.03 1.6 3.03 1.6.08.25.13.51.13.79 0 .47-.11.85-.33 1.14s-.6.44-1.14.45c-.08 0-.15 0-.22 0s-.14 0-.22-.01c.21-.17.38-.37.52-.61s.21-.52.21-.83c0-.2-.04-.4-.11-.59-.08-.2-.2-.37-.36-.53s-.38-.28-.65-.38-.59-.15-.97-.15-.7.05-.96.16-.48.24-.65.41c-.17.16-.29.35-.37.55s-.11.39-.11.57c0 .3.06.56.18.78s.27.41.45.57c-.11.02-.22.03-.32.04-.1 0-.2.01-.3.01h-1.37c-.4 0-.72-.12-.97-.35-.25-.24-.37-.55-.37-.93v-.38c0-.2-.01-.26-.04-.44-.05-.34-.14-.65-.26-.92 0-.01 0-.01-.01-.02-.02-.03-.03-.07-.05-.1-.44-.76-1.09-1.2-1.95-1.32-.25-.03-.55-.01-.86.04-.6.11-1.2.36-1.42.64 2.48.04 2.93 1.55 2.93 1.55.07.2.11.3.12.52v.04c0 .06.01.11.01.17 0 .52-.11.89-.31 1.13-.21.24-.6.36-1.17.37h-2.74v.7c0 .31.25.56.56.56h2.69c.55 0 .99-.07 1.34-.21s.62-.37.82-.68c.19.3.46.52.82.67s.72.22 1.09.22h1.36c.33 0 .64-.02.93-.07s.58-.12.88-.21c.58.24 1.23.35 1.95.35.44 0 .85-.05 1.21-.16.37-.1.68-.27.94-.5s.46-.53.61-.91.22-.83.22-1.36c-.02-.24-.04-.45-.07-.65zm-4.2 1.54c-.15.16-.36.28-.64.39-.54-.24-.8-.57-.8-.97 0-.22.07-.4.22-.55s.35-.23.61-.23c.24 0 .44.07.6.21s.23.33.23.56-.07.43-.22.59z" fill="#4f4f4f"/><path d="m103.56 32.47c-.05-.36-.14-.68-.28-.97-.02-.04-.03-.07-.05-.1-.45-.79-1.13-1.24-2.02-1.36-.76-.1-2.01.27-2.35.71 2.57.04 3.03 1.6 3.03 1.6.08.25.13.51.13.79 0 .47-.11.85-.33 1.14s-.6.44-1.14.45c-.08 0-.15 0-.22 0s-.14 0-.22-.01c.21-.17.38-.37.52-.61s.21-.52.21-.83c0-.2-.04-.4-.11-.59-.08-.2-.2-.37-.36-.53s-.38-.28-.65-.38-.59-.15-.97-.15-.7.05-.96.16-.48.24-.65.41c-.17.16-.29.35-.37.55s-.11.39-.11.57c0 .3.06.56.18.78s.27.41.45.57c-.11.02-.22.03-.32.04-.1 0-.2.01-.3.01h-1.37c-.4 0-.72-.12-.97-.35-.25-.24-.37-.55-.37-.93v-.38c0-.2-.01-.26-.04-.44-.05-.34-.14-.65-.26-.92 0-.01 0-.01-.01-.02-.02-.03-.03-.07-.05-.1-.44-.76-1.09-1.2-1.95-1.32-.25-.03-.55-.01-.86.04-.6.11-1.2.36-1.42.64 2.48.04 2.93 1.55 2.93 1.55.07.2.11.3.12.52v.04c0 .06.01.11.01.17 0 .52-.11.89-.31 1.13-.21.24-.6.36-1.17.37h-2.75v.7c0 .31.25.56.56.56h2.69c.55 0 .99-.07 1.34-.21s.62-.37.82-.68c.19.3.46.52.82.67s.72.22 1.09.22h1.36c.33 0 .64-.02.93-.07s.58-.12.88-.21c.58.24 1.23.35 1.95.35.44 0 .85-.05 1.21-.16.37-.1.68-.27.94-.5s.46-.53.61-.91.22-.83.22-1.36c-.02-.24-.04-.45-.06-.65zm-4.21 1.54c-.15.16-.36.28-.64.39-.54-.24-.8-.57-.8-.97 0-.22.07-.4.22-.55s.35-.23.61-.23c.24 0 .44.07.6.21s.23.33.23.56c.01.23-.07.43-.22.59z" fill="#4f4f4f"/><path d="m122.54 42.23v-2.28h.57c.23 0 .41.06.55.17s.2.27.2.46c0 .13-.03.25-.1.34-.07.1-.16.17-.29.22.07.05.14.11.21.2.07.08.17.23.29.43.08.13.14.23.19.29l.12.16h-.31c-.05 0-.1-.03-.13-.07l-.05-.08c0-.01-.01-.01-.02-.03l-.06-.09-.1-.17-.11-.18c-.07-.09-.13-.17-.19-.22-.06-.06-.11-.1-.15-.12-.05-.02-.12-.04-.23-.04h-.09v.84c0 .08-.07.15-.15.15h-.15zm.43-2h-.1v.72h.12c.17 0 .28-.01.34-.04s.11-.07.14-.13.05-.12.05-.2c0-.07-.02-.14-.06-.2s-.09-.1-.16-.12c-.06-.02-.17-.03-.33-.03z" fill="#4f4f4f"/><path d="m123.32 39.28c-1 0-1.81.81-1.81 1.81s.81 1.81 1.81 1.81 1.81-.81 1.81-1.81-.81-1.81-1.81-1.81zm0 3.52c-.94 0-1.7-.76-1.7-1.7s.76-1.7 1.7-1.7 1.7.76 1.7 1.7c0 .93-.76 1.7-1.7 1.7z" fill="#4f4f4f"/></svg>