<svg id="Layer_1" data-name="Layer 1" xmlns="http://www.w3.org/2000/svg" viewBox="0 0 50 50"><defs><style>.cls-1{fill:#4f4f4f;}</style></defs><title>home</title><path class="cls-1" d="M24.71.1h1a6.17,6.17,0,0,1,3,1.57c2.08,1.8,4.18,3.57,6.27,5.36l.54.43c0-1,0-1.89,0-2.78A1.48,1.48,0,0,1,37.13,3H42.4c1.32,0,1.84.52,1.84,1.82q0,4.86,0,9.72a.92.92,0,0,0,.37.78l3.75,3.2a4.72,4.72,0,0,1,1.52,2.16c.08.26.15.52.23.78v1.18A1.63,1.63,0,0,0,50,23a4.35,4.35,0,0,1-5.41,3.32l-.34,0v.58c0,7.14,0,14.28,0,21.42a1.73,1.73,0,0,1-1.18,1.85H7.13A1.72,1.72,0,0,1,6,48.24C6,41.12,6,34,6,26.88v-.65l-.45.1a4.27,4.27,0,0,1-4.6-1.78A12.26,12.26,0,0,1,.1,22.66V21.48A5.49,5.49,0,0,1,2,18.38q9.75-8.22,19.45-16.49A6.68,6.68,0,0,1,24.71.1Zm-15.82,47h7.33V34.31c0-1.27.53-1.79,1.82-1.79H32.2c1.25,0,1.78.53,1.78,1.77V47.14H41.3c0-.16,0-.29,0-.41q0-11.15,0-22.27a.93.93,0,0,0-.31-.64L27.55,12.28l-2.34-2a3.4,3.4,0,0,0-.3.22L9.3,23.74a1,1,0,0,0-.42.9q0,11,0,21.92ZM25.21,6.74a10.48,10.48,0,0,1,1.33.84q7.7,6.57,15.38,13.18c.94.8,1.87,1.62,2.83,2.4a1.45,1.45,0,0,0,2.39-.83,1.6,1.6,0,0,0-.7-1.56l-20-17.15a1.59,1.59,0,0,0-2.46,0L8.06,17.12Q5.84,19,3.63,20.88a1.46,1.46,0,0,0-.09,2.29A1.5,1.5,0,0,0,5.62,23l6.51-5.53C16.08,14.16,20,10.8,24,7.47A9.52,9.52,0,0,1,25.21,6.74ZM19.16,47.13H31V35.47H19.16ZM38.38,6V9.81a.39.39,0,0,0,.09.26l2.82,2.41V6Z"/><path class="cls-1" d="M25.1,17.67h4.29a1.49,1.49,0,0,1,1.66,1.65q0,4.2,0,8.4a1.5,1.5,0,0,1-1.69,1.67H20.82a1.48,1.48,0,0,1-1.66-1.66q0-4.18,0-8.39a1.49,1.49,0,0,1,1.69-1.67Zm-3,8.76h6v-5.8h-6Z"/><path class="cls-1" d="M28.12,39.83a1.46,1.46,0,1,1-1.47-1.45A1.47,1.47,0,0,1,28.12,39.83Z"/></svg>