<svg enable-background="new 0 0 50 50" viewBox="0 0 50 50" xmlns="http://www.w3.org/2000/svg"><path d="m49.87 20.7c-.28-.88-.83-1.57-1.52-2.16-1.25-1.07-2.5-2.14-3.75-3.2-.26-.22-.37-.44-.37-.78.01-3.24.01-6.48.01-9.72 0-1.3-.52-1.82-1.84-1.82-1.76 0-3.52 0-5.27.01-1.09 0-1.66.56-1.67 1.65-.01.89 0 1.78 0 2.78-.22-.18-.38-.3-.54-.43-2.09-1.79-4.19-3.56-6.27-5.36-.87-.76-1.81-1.36-2.97-1.57h-.97c-1.29.21-2.27.97-3.23 1.79-6.47 5.51-12.95 11.01-19.45 16.49-1 .84-1.65 1.84-1.93 3.1v1.18c.27.63.45 1.32.82 1.89.99 1.52 2.83 2.2 4.6 1.78.13-.03.25-.05.45-.1v.65c0 7.12.01 14.24-.01 21.36 0 .9.29 1.54 1.17 1.86h35.94c.86-.31 1.18-.94 1.18-1.85-.02-7.14-.01-14.28-.01-21.42v-.58c.13.02.24.02.34.04 2.49.62 4.83-.81 5.41-3.32.02-.11.07-.21.11-.31v-1.18c-.08-.26-.15-.52-.23-.78zm-11.49-14.73h2.91v6.51c-.98-.84-1.9-1.62-2.82-2.41-.06-.06-.09-.17-.09-.26zm-7.35 41.16h-11.87v-11.66h11.87zm10.27.01h-7.32v-12.85c0-1.24-.53-1.77-1.78-1.77h-14.16c-1.29 0-1.81.52-1.82 1.79v12.82h-7.33v-.57c0-7.31 0-14.62-.01-21.92 0-.4.12-.65.42-.9 5.21-4.41 10.41-8.82 15.61-13.23.08-.07.17-.13.3-.22.78.67 1.56 1.33 2.34 1.99 4.48 3.85 8.97 7.69 13.45 11.54.17.14.31.42.31.64.01 7.42.01 14.84.01 22.27 0 .12-.01.25-.02.41zm5.84-24.81c-.21 1.11-1.48 1.57-2.39.83-.96-.78-1.89-1.6-2.83-2.4-5.12-4.4-10.25-8.8-15.38-13.18-.38-.33-.85-.54-1.33-.84-.47.28-.9.45-1.23.73-3.96 3.33-7.9 6.69-11.85 10.03-2.17 1.85-4.34 3.69-6.51 5.53-.72.61-1.47.66-2.08.14-.71-.61-.68-1.63.09-2.29 1.47-1.26 2.95-2.51 4.43-3.76 5.3-4.5 10.6-8.99 15.9-13.49.92-.78 1.56-.78 2.46-.01 6.67 5.72 13.34 11.43 20.02 17.15.49.42.82.89.7 1.56z" fill="#4f4f4f"/><g fill="#eaab3c"><path d="m41.29 5.97v6.51c-.98-.84-1.9-1.62-2.82-2.41-.06-.06-.09-.17-.09-.26v-3.84z"/><path d="m19.16 35.47v11.66h11.87v-11.66zm7.51 5.83c-.79.01-1.47-.66-1.47-1.45-.01-.8.65-1.46 1.45-1.47s1.47.65 1.47 1.45c.01.79-.65 1.46-1.45 1.47z"/><path d="m41.31 24.46c0-.22-.14-.5-.31-.64-4.48-3.85-8.97-7.69-13.45-11.54-.78-.66-1.56-1.32-2.34-1.99-.13.09-.22.15-.3.22-5.2 4.41-10.4 8.82-15.61 13.23-.3.25-.42.5-.42.9.01 7.3.01 14.61.01 21.92v.57h7.33v-12.82c.01-1.27.53-1.79 1.82-1.79h14.16c1.25 0 1.78.53 1.78 1.77v12.85h7.32c.01-.16.02-.29.02-.41 0-7.43 0-14.85-.01-22.27zm-10.26 3.26c0 1.1-.58 1.67-1.69 1.67h-8.54c-1.08 0-1.66-.57-1.66-1.66-.01-2.79-.01-5.59 0-8.39 0-1.11.57-1.66 1.69-1.67h8.54c1.08.01 1.66.58 1.66 1.65.01 2.8.01 5.6 0 8.4z"/><path d="m47.14 22.33c-.21 1.11-1.48 1.57-2.39.83-.96-.78-1.89-1.6-2.83-2.4-5.12-4.4-10.25-8.8-15.38-13.18-.38-.33-.85-.54-1.33-.84-.47.28-.9.45-1.23.73-3.96 3.33-7.9 6.69-11.85 10.03-2.17 1.85-4.34 3.69-6.51 5.53-.72.61-1.47.66-2.08.14-.71-.61-.68-1.63.09-2.29 1.47-1.26 2.95-2.51 4.43-3.76 5.3-4.5 10.6-8.99 15.9-13.49.92-.78 1.56-.78 2.46-.01 6.67 5.72 13.34 11.43 20.02 17.15.49.42.82.89.7 1.56z"/></g><path d="m29.39 17.67h-8.54c-1.12.01-1.69.56-1.69 1.67-.01 2.8-.01 5.6 0 8.39 0 1.09.58 1.66 1.66 1.66h8.54c1.11 0 1.69-.57 1.69-1.67.01-2.8.01-5.6 0-8.4 0-1.07-.58-1.64-1.66-1.65zm-1.29 8.76h-6.01v-5.8h6.01z" fill="#4f4f4f"/><path d="m22.09 20.63h6.01v5.8h-6.01z" fill="#eaab3c"/><path d="m28.12 39.83c.01.79-.65 1.46-1.45 1.47-.79.01-1.47-.66-1.47-1.45-.01-.8.65-1.46 1.45-1.47s1.47.65 1.47 1.45z" fill="#4f4f4f"/></svg>