<svg enable-background="new 0 0 50 50" viewBox="0 0 50 50" xmlns="http://www.w3.org/2000/svg"><path d="m45.07 5.38c-3.01-2.76-6.66-3.86-10.72-3.4-3.41.39-6.26 1.95-8.6 4.47-.21.23-.44.46-.62.65-.55-.53-1.06-1.03-1.59-1.51-3.7-3.33-8-4.52-12.8-3.25-5.47 1.46-8.71 5.24-10.18 10.61-.24.87-.33 1.78-.49 2.68v2.14c.03.15.08.29.09.43.37 3.49 1.76 6.51 4.16 9.05 6.39 6.75 12.79 13.48 19.18 20.23 1.08 1.14 2.07 1.14 3.15 0 6.4-6.75 12.8-13.48 19.18-20.24 2.39-2.52 3.82-5.53 4.14-9 .47-5.07-1.14-9.42-4.9-12.86zm-.84 18.24c-.28.38-.59.74-.92 1.08-5.98 6.32-11.97 12.64-17.96 18.96-.08.08-.13.19-.22.34-.74-.78-1.38-1.45-2.01-2.13-5.35-5.63-10.68-11.27-16.03-16.89-2.51-2.64-3.69-5.74-3.4-9.37.36-4.35 3.32-8.64 7.85-9.8 3.65-.94 6.89-.09 9.65 2.49.85.78 1.61 1.66 2.41 2.49.94.98 2.01.98 2.96 0 1.02-1.03 1.96-2.15 3.08-3.07 4.27-3.51 10.52-2.89 14.08 1.35 3.59 4.27 3.8 10.04.51 14.55z" fill="#4f4f4f"/><path d="m44.23 23.62c-.28.38-.59.74-.92 1.08-5.98 6.32-11.97 12.64-17.96 18.96-.08.08-.13.19-.22.34-.74-.78-1.38-1.45-2.01-2.13-5.35-5.63-10.68-11.27-16.03-16.89-2.51-2.64-3.69-5.74-3.4-9.37.36-4.35 3.32-8.64 7.85-9.8 3.65-.94 6.89-.09 9.65 2.49.85.78 1.61 1.66 2.41 2.49.94.98 2.01.98 2.96 0 1.02-1.03 1.96-2.15 3.08-3.07 4.27-3.51 10.52-2.89 14.08 1.35 3.59 4.27 3.8 10.04.51 14.55z" fill="#eaab3c"/></svg>