<?xml version="1.0" encoding="utf-8"?>
<!-- Generator: Adobe Illustrator 23.0.3, SVG Export Plug-In . SVG Version: 6.00 Build 0)  -->
<svg version="1.1" id="Layer_1" xmlns="http://www.w3.org/2000/svg" xmlns:xlink="http://www.w3.org/1999/xlink" x="0px" y="0px"
	 viewBox="0 0 50 50" style="enable-background:new 0 0 50 50;" xml:space="preserve">
<style type="text/css">
	.st0{fill:#4F4F4F;}
	.st1{fill:#EAAB3C;}
</style>
<g>
	<path class="st0" d="M0.07,15.63c0.16-0.89,0.25-1.81,0.49-2.68C2.03,7.58,5.27,3.8,10.74,2.34c4.79-1.27,9.1-0.09,12.79,3.25
		c0.53,0.48,1.04,0.98,1.6,1.51c0.18-0.19,0.41-0.42,0.62-0.65c2.33-2.51,5.18-4.07,8.6-4.47c4.06-0.47,7.71,0.64,10.72,3.4
		c3.76,3.44,5.36,7.79,4.9,12.86c-0.32,3.47-1.76,6.47-4.14,9C39.45,34,33.05,40.73,26.65,47.48c-1.08,1.14-2.07,1.14-3.15,0
		C17.11,40.73,10.71,34,4.32,27.25c-2.4-2.54-3.8-5.56-4.16-9.05c-0.02-0.14-0.06-0.28-0.09-0.43C0.07,17.06,0.07,16.34,0.07,15.63z
		 M25.13,44c0.09-0.15,0.14-0.26,0.22-0.34c5.99-6.32,11.98-12.64,17.97-18.96c0.32-0.34,0.64-0.7,0.92-1.08
		c3.29-4.51,3.08-10.28-0.51-14.55c-3.56-4.24-9.81-4.86-14.08-1.34c-1.11,0.91-2.06,2.03-3.07,3.07c-0.95,0.98-2.02,0.99-2.97,0
		c-0.8-0.83-1.56-1.71-2.4-2.5c-2.76-2.57-6-3.42-9.65-2.49c-4.53,1.16-7.49,5.45-7.85,9.8c-0.3,3.63,0.89,6.73,3.4,9.37
		c5.35,5.62,10.68,11.26,16.03,16.9C23.75,42.55,24.39,43.22,25.13,44z"/>
</g>
</svg>
