<svg enable-background="new 0 0 44 44" viewBox="0 0 44 44" xmlns="http://www.w3.org/2000/svg"><g fill="#fff"><path d="m3.38 20.45h16.55v1.8h-16.55z" transform="matrix(.7071 -.7071 .7071 .7071 -11.6844 14.4912)"/><path d="m31.45 13.08h1.8v16.55h-1.8z" transform="matrix(.7071 -.7071 .7071 .7071 -5.6219 29.128)"/><path d="m41.25 3.09-19.25 14.87-19.25-14.87-1.1 1.43 19.8 15.3c.16.11.35.18.55.18s.39-.07.55-.19l19.8-15.3z"/><path d="m40.9 3h-37.8c-1.49 0-2.7 1.21-2.7 2.7v25.2c0 1.49 1.21 2.7 2.7 2.7h12.6v4.5c0 .36.22.69.56.83.1.05.22.07.34.07.24 0 .47-.09.64-.26l5.14-5.14h18.52c1.49 0 2.7-1.21 2.7-2.7v-25.2c0-1.49-1.21-2.7-2.7-2.7zm.9 27.9c0 .5-.4.9-.9.9h-18.9c-.24 0-.47.09-.64.26l-3.86 3.86v-3.22c0-.5-.4-.9-.9-.9h-13.5c-.5 0-.9-.4-.9-.9v-25.2c0-.5.4-.9.9-.9h37.8c.5 0 .9.4.9.9z"/></g></svg>