<svg enable-background="new 0 0 44 44" viewBox="0 0 44 44" xmlns="http://www.w3.org/2000/svg"><path d="m7.33 5.76h31.67v18.71h-31.67z" fill="#4e901e"/><path d="m36.12 10.74v8.75c-.88.5-1.6 1.22-2.1 2.1h-21.71c-.5-.88-1.22-1.6-2.1-2.1v-8.75c.88-.5 1.6-1.22 2.1-2.1h21.71c.5.87 1.22 1.6 2.1 2.1z" fill="#7ed63e"/><circle cx="23.17" cy="15.11" fill="#f1f2f2" r="6.48"/><path d="m4.46 11.51h34.54v18.71h-34.54z" fill="#5eac24"/><path d="m33.24 16.49v8.75c-.88.5-1.6 1.22-2.1 2.1h-21.7c-.5-.88-1.22-1.6-2.1-2.1v-8.75c.88-.5 1.6-1.22 2.1-2.1h21.71c.49.88 1.22 1.61 2.09 2.1z" fill="#7ed63e"/><circle cx="20.29" cy="20.87" fill="#f1f2f2" r="6.48"/><path d="m1.58 17.27h34.55v18.71h-34.55z" fill="#5eac24"/><path d="m30.37 22.25v8.75c-.88.5-1.6 1.22-2.1 2.1h-21.71c-.5-.88-1.22-1.6-2.1-2.1v-8.75c.88-.5 1.6-1.22 2.1-2.1h21.71c.49.88 1.22 1.6 2.1 2.1z" fill="#91dc5a"/><circle cx="17.41" cy="26.63" fill="#f1f2f2" r="6.48"/><path d="m42.6 23.75c0-4.37-3.54-7.92-7.92-7.92s-7.92 3.54-7.92 7.92 3.54 7.92 7.92 7.92 7.92-3.55 7.92-7.92zm-7.92 5.76c-3.18 0-5.76-2.58-5.76-5.76s2.58-5.76 5.76-5.76 5.76 2.58 5.76 5.76-2.58 5.76-5.76 5.76z" fill="#ff9811"/><circle cx="34.68" cy="23.75" fill="#fbb040" r="5.76"/><path d="m34.68 17.99c-.24 0-.48.02-.72.05 3.15.39 5.39 3.27 4.99 6.42-.33 2.61-2.38 4.67-4.99 4.99 3.15.42 6.05-1.8 6.46-4.95.42-3.15-1.8-6.05-4.95-6.46-.26-.03-.52-.05-.79-.05z" fill="#f7941d"/><path d="m41.16 31.67h-12.95c-1.19 0-2.16.97-2.16 2.16s.97 2.16 2.16 2.16h12.95c1.19 0 2.16-.97 2.16-2.16s-.97-2.16-2.16-2.16z" fill="#ee8700"/><path d="m17.41 24.47c.4 0 .72.32.72.72s.32.72.72.72.72-.32.72-.72c0-.91-.58-1.72-1.44-2.03v-.85c0-.4-.32-.72-.72-.72s-.72.32-.72.72v.85c-1.12.4-1.71 1.63-1.32 2.75.3.86 1.12 1.44 2.04 1.44.4 0 .72.32.72.72s-.32.72-.72.72-.72-.32-.72-.72-.32-.72-.72-.72-.72.32-.72.72c0 .91.58 1.72 1.44 2.03v.85c0 .4.32.72.72.72s.72-.32.72-.72v-.85c1.12-.4 1.71-1.63 1.32-2.75-.3-.86-1.12-1.44-2.04-1.44-.4 0-.72-.32-.72-.72s.32-.72.72-.72z"/><path d="m8.05 25.91h-.72c-.4 0-.72.32-.72.72s.32.72.72.72h.72c.4 0 .72-.32.72-.72s-.32-.72-.72-.72z"/><path d="m33.96 20.15v.13c-1.12.4-1.71 1.63-1.32 2.75.3.86 1.12 1.44 2.04 1.44.4 0 .72.32.72.72s-.32.72-.72.72-.72-.32-.72-.72-.32-.72-.72-.72-.72.32-.72.72c0 .91.58 1.72 1.44 2.03v.13c0 .4.32.72.72.72s.72-.32.72-.72v-.13c1.12-.4 1.71-1.63 1.32-2.75-.3-.86-1.12-1.44-2.04-1.44-.4 0-.72-.32-.72-.72s.32-.72.72-.72.72.32.72.72.32.72.72.72.72-.32.72-.72c0-.91-.58-1.72-1.44-2.03v-.13c0-.4-.32-.72-.72-.72s-.72.32-.72.72z"/><path d="m28.21 23.75c0 3.58 2.9 6.48 6.48 6.48s6.48-2.9 6.48-6.48-2.9-6.48-6.48-6.48c-3.58.01-6.48 2.9-6.48 6.48zm11.51 0c0 2.78-2.26 5.04-5.04 5.04s-5.04-2.26-5.04-5.04 2.26-5.04 5.04-5.04 5.04 2.26 5.04 5.04z"/><path d="m41.16 30.95h-1.71c3.97-2.62 5.07-7.97 2.45-11.94-.58-.88-1.32-1.65-2.18-2.26-.01-.01 0-10.99 0-10.99 0-.4-.32-.72-.72-.72h-31.67c-.4 0-.72.32-.72.72v5.04h-2.15c-.4 0-.72.32-.72.72v5.04h-2.16c-.4 0-.72.32-.72.72v18.71c0 .4.32.72.72.72h39.58c1.59 0 2.88-1.29 2.88-2.88 0-1.6-1.29-2.88-2.88-2.88zm-12.95 0c-1.02 0-1.97.55-2.48 1.44h-4.02c3.18-2.36 3.85-6.85 1.49-10.03-.42-.57-.92-1.07-1.49-1.49h4.84c-1.34 3.73.05 7.9 3.37 10.08zm-16.56-4.32c0-3.18 2.58-5.76 5.76-5.76s5.76 2.58 5.76 5.76-2.58 5.76-5.76 5.76c-3.18-.01-5.75-2.58-5.76-5.76zm1.46 5.76h-6.15c-.47-.71-1.08-1.32-1.78-1.78v-7.95c.71-.47 1.32-1.08 1.78-1.78h6.15c-3.18 2.36-3.85 6.85-1.49 10.03.42.55.92 1.06 1.49 1.48zm12.92-15.84c-.41-.55-.89-1.03-1.44-1.44h6.15c.17.24.35.48.55.7-.48.21-.94.45-1.37.74zm-11.48 0h-6.03c.51-.41.95-.89 1.31-1.44h6.15c-.54.41-1.02.9-1.43 1.44zm5.74-1.44c1.4 0 2.75.51 3.8 1.44h-7.6c1.05-.93 2.4-1.44 3.8-1.44zm21.59 8.64c0 3.97-3.22 7.2-7.2 7.2s-7.2-3.22-7.2-7.2 3.22-7.2 7.2-7.2c3.98.01 7.2 3.23 7.2 7.2zm-12.97-12.96c-.41-.55-.89-1.03-1.44-1.44h6.15c.36.55.8 1.03 1.31 1.44zm-11.48 0h-6.03c.51-.41.95-.89 1.31-1.44h6.15c-.54.41-1.02.9-1.43 1.44zm5.74-1.44c1.4 0 2.75.51 3.8 1.44h-7.6c1.05-.92 2.4-1.44 3.8-1.44zm-15.12-2.87h30.23v9.43c-.46-.21-.95-.38-1.44-.51v-4.66c0-.26-.14-.5-.37-.63-.76-.43-1.4-1.06-1.83-1.83-.13-.23-.37-.37-.63-.37h-21.7c-.26 0-.5.14-.63.37-.43.76-1.06 1.4-1.83 1.83-.23.13-.37.37-.37.63v.06h-1.43zm-2.87 5.75h30.22v2.92c-.24-.02-.48-.04-.72-.04-.62 0-1.23.07-1.83.2-.43-.36-.8-.79-1.08-1.28-.13-.22-.37-.36-.63-.36h-21.7c-.26 0-.5.14-.63.37-.43.76-1.06 1.4-1.83 1.83-.22.13-.36.37-.37.62v.06h-1.43zm-2.88 5.76h25.97c-.4.44-.75.92-1.05 1.44h-20.66c-.26 0-.5.14-.63.37-.43.76-1.06 1.4-1.83 1.83-.23.13-.37.37-.37.63v8.74c0 .26.14.5.37.63.76.43 1.4 1.06 1.83 1.83.13.23.37.37.63.37h18.77c0 .51.14 1 .4 1.44h-23.43zm38.86 17.27h-12.95c-.79 0-1.44-.64-1.44-1.44 0-.79.64-1.44 1.44-1.44v1.44c0 .4.32.72.72.72s.72-.32.72-.72v-1.44h1.44v1.44c0 .4.32.72.72.72s.72-.32.72-.72v-1.44h1.44v1.44c0 .4.32.72.72.72s.72-.32.72-.72v-1.44h1.44v1.44c0 .4.32.72.72.72s.72-.32.72-.72v-1.44h1.44v1.44c0 .4.32.72.72.72s.72-.32.72-.72v-1.44c.79 0 1.44.64 1.44 1.44-.01.8-.65 1.44-1.45 1.44z"/></svg>