<svg enable-background="new 0 0 44 44" viewBox="0 0 44 44" xmlns="http://www.w3.org/2000/svg"><g fill="#fff"><path d="m34 43.3h-24c-2.2 0-4-1.8-4-4v-18.6c0-2.2 1.8-4 4-4h24c2.2 0 4 1.8 4 4v18.7c0 2.1-1.8 3.9-4 3.9zm-24-24c-.7 0-1.3.6-1.3 1.3v18.7c0 .7.6 1.3 1.3 1.3h24c.7 0 1.3-.6 1.3-1.3v-18.6c0-.7-.6-1.3-1.3-1.3h-24z"/><path d="m31.3 19.3c-.7 0-1.3-.6-1.3-1.3v-6.7c0-4.4-3.6-8-8-8s-8 3.6-8 8v6.7c0 .7-.6 1.3-1.3 1.3s-1.3-.6-1.3-1.3v-6.7c0-5.9 4.8-10.7 10.7-10.7s10.7 4.8 10.7 10.7v6.7c-.1.7-.7 1.3-1.5 1.3z"/><path d="m22 30.9c-2 0-3.6-1.6-3.6-3.6s1.6-3.6 3.6-3.6 3.6 1.6 3.6 3.6-1.6 3.6-3.6 3.6zm0-4.5c-.5 0-.9.4-.9.9s.4.9.9.9.9-.4.9-.9-.4-.9-.9-.9z"/><path d="m22 36.2c-.7 0-1.3-.6-1.3-1.3v-4.9c0-.7.6-1.3 1.3-1.3s1.3.6 1.3 1.3v4.9c0 .7-.6 1.3-1.3 1.3z"/></g></svg>