<svg enable-background="new 0 0 44 44" viewBox="0 0 44 44" xmlns="http://www.w3.org/2000/svg"><g fill="#fff"><path d="m25.63 2.2h-7.33c-.4 0-.73.33-.73.73s.33.73.73.73h7.33c.4 0 .73-.33.73-.73.01-.4-.32-.73-.73-.73z"/><path d="m30.77 2.2h-.73c-.4 0-.73.33-.73.73s.33.73.73.73h.73c.4 0 .73-.33.73-.73s-.33-.73-.73-.73z"/><path d="m22.88 37.4h-1.82c-1.12 0-2.02.91-2.02 2.02v.35c0 1.12.91 2.02 2.02 2.02h1.82c1.12 0 2.02-.91 2.02-2.02v-.35c0-1.11-.91-2.02-2.02-2.02zm.55 2.38c0 .31-.25.56-.56.56h-1.82c-.31 0-.56-.25-.56-.56v-.35c0-.31.25-.56.56-.56h1.82c.31 0 .56.25.56.56z"/><path d="m31.78 0h-19.63c-1.46 0-2.65 1.19-2.65 2.65v38.7c0 1.46 1.19 2.65 2.65 2.65h19.63c1.46 0 2.65-1.19 2.65-2.65v-38.7c0-1.46-1.19-2.65-2.65-2.65zm1.19 41.35c0 .65-.53 1.18-1.18 1.18h-19.64c-.65 0-1.18-.53-1.18-1.18v-38.7c0-.65.53-1.18 1.18-1.18h19.63c.65 0 1.18.53 1.18 1.18z"/><path d="m33.7 4.4h-23.47c-.4 0-.73.33-.73.73v30.8c0 .4.33.73.73.73h23.47c.4 0 .73-.33.73-.73v-30.8c0-.4-.33-.73-.73-.73zm-.73 30.8h-22v-29.33h22z"/></g></svg>