<svg enable-background="new 0 0 44 44" viewBox="0 0 44 44" xmlns="http://www.w3.org/2000/svg"><g fill="#fff"><path d="m38.9 10.6-9.6-9.6c-.2-.2-.5-.4-.9-.4h-16.8c-2 0-3.6 1.7-3.6 3.6v33.8c0 2 1.6 3.6 3.6 3.6h24c2 0 3.6-1.6 3.6-3.6v-26.5c0-.4-.1-.7-.3-.9zm-9.3-5.9 5.5 5.5h-4.3c-.7 0-1.2-.5-1.2-1.2zm6 34.6h-24c-.7 0-1.2-.5-1.2-1.2v-33.9c0-.7.5-1.2 1.2-1.2h15.6v6c0 2 1.6 3.6 3.6 3.6h6v25.4c0 .7-.5 1.3-1.2 1.3z"/><path d="m30.8 22.6h-14.4c-.7 0-1.2.5-1.2 1.2s.5 1.2 1.2 1.2h14.4c.7 0 1.2-.5 1.2-1.2s-.5-1.2-1.2-1.2z"/></g></svg>