<svg enable-background="new 0 0 44 45" viewBox="0 0 44 45" xmlns="http://www.w3.org/2000/svg"><g fill="#fc0345"><path d="m42.9 24.3v-10.5c0-.3-.3-.6-.6-.6h-40.5c-.3 0-.6.3-.6.6v10.5c0 .2.1.3.2.4s.3.2.4.2h40.4c.2 0 .3-.1.4-.2.2-.1.3-.2.3-.4zm-40.5-.6v-9.3h39.2v9.3z"/><path d="m39.2 17.7c-.7-.7-1.9-.7-2.6 0s-.7 1.9 0 2.6 1.9.7 2.6 0 .7-1.9 0-2.6zm-1.8 1.8c-.2-.2-.2-.6 0-.9.2-.2.6-.2.9 0 .2.2.2.6 0 .9-.3.2-.7.2-.9 0z"/><path d="m33.7 13.8h1.2v2.6h-1.2z"/><path d="m31.1 13.8h1.2v3.5h-1.2z"/><path d="m28.4 13.8h1.2v2.6h-1.2z"/><path d="m25.8 13.8h1.2v3.5h-1.2z"/><path d="m23.2 13.8h1.2v2.6h-1.2z"/><path d="m20.5 13.8h1.2v3.5h-1.2z"/><path d="m17.9 13.8h1.2v2.6h-1.2z"/><path d="m15.2 13.8h1.2v3.5h-1.2z"/><path d="m12.6 13.8h1.2v2.6h-1.2z"/><path d="m10 13.8h1.2v3.5h-1.2z"/><path d="m7.3 13.8h1.2v2.6h-1.2z"/><path d="m4.7 13.8h1.2v3.5h-1.2z"/></g></svg>