<svg enable-background="new 0 0 50 50" viewBox="0 0 50 50" xmlns="http://www.w3.org/2000/svg"><path d="m49.13 47.68-.24-.24c-4.73-4.72-9.45-9.45-14.18-14.17-.14-.13-.33-.21-.51-.32.28-.34.44-.54.6-.74 4.61-5.86 5.85-12.35 3.23-19.36-2.43-6.53-7.25-10.55-13.98-12.25-1-.25-2.03-.34-3.05-.5h-2.62c-.82.12-1.65.22-2.47.38-3.43.68-6.47 2.17-9.09 4.48-3.56 3.13-5.72 7.05-6.51 11.73-.09.57-.16 1.14-.23 1.72v2.61c.03.17.07.34.08.52.31 3.4 1.46 6.5 3.39 9.3 2.06 3 4.77 5.26 8.09 6.77 3.8 1.73 7.75 2.16 11.82 1.38 3.36-.65 6.34-2.12 8.94-4.34.13-.11.27-.22.5-.39.13.18.23.36.37.49 4.77 4.77 9.53 9.54 14.31 14.31.25.24.56.42.84.64h.48c.95-.58 1.02-1.21.23-2.02zm-29.46-10.38c-9.82-.1-17.55-7.96-17.51-17.6.04-9.93 8.02-17.56 17.58-17.52 9.76.04 17.59 7.96 17.53 17.58-.05 9.7-7.97 17.59-17.6 17.54z" fill="#4f4f4f"/><path d="m37.27 19.76c-.05 9.7-7.97 17.59-17.6 17.54-9.82-.1-17.55-7.96-17.51-17.6.04-9.93 8.02-17.56 17.58-17.52 9.76.04 17.59 7.96 17.53 17.58z" fill="#eaab3c"/></svg>