<?xml version="1.0" encoding="utf-8"?>
<!-- Generator: Adobe Illustrator 23.0.3, SVG Export Plug-In . SVG Version: 6.00 Build 0)  -->
<svg version="1.1" id="Layer_1" xmlns="http://www.w3.org/2000/svg" xmlns:xlink="http://www.w3.org/1999/xlink" x="0px" y="0px"
	 viewBox="0 0 50 50" style="enable-background:new 0 0 50 50;" xml:space="preserve">
<style type="text/css">
	.st0{fill:#4F4F4F;}
	.st1{fill:#EAAB3C;}
</style>
<g>
	<path class="st0" d="M48.42,49.7c-0.28-0.21-0.59-0.39-0.84-0.64c-4.78-4.76-9.54-9.53-14.31-14.31c-0.14-0.14-0.24-0.31-0.37-0.49
		c-0.22,0.17-0.36,0.27-0.49,0.39c-2.6,2.22-5.59,3.7-8.95,4.34c-4.07,0.78-8.02,0.35-11.81-1.38c-3.32-1.51-6.03-3.77-8.1-6.77
		c-1.93-2.8-3.08-5.9-3.38-9.3c-0.02-0.17-0.06-0.34-0.09-0.52c0-0.87,0-1.74,0-2.62c0.08-0.57,0.14-1.15,0.24-1.72
		c0.79-4.67,2.95-8.6,6.51-11.73c2.62-2.31,5.66-3.8,9.09-4.48c0.82-0.16,1.65-0.26,2.48-0.38c0.87,0,1.74,0,2.62,0
		c1.02,0.16,2.05,0.25,3.05,0.5c6.74,1.7,11.55,5.73,13.99,12.25c2.61,7.01,1.38,13.5-3.24,19.36c-0.16,0.2-0.32,0.4-0.59,0.74
		c0.18,0.11,0.37,0.19,0.5,0.32c4.73,4.72,9.45,9.45,14.18,14.17c0.08,0.08,0.16,0.16,0.24,0.24c0.8,0.8,0.72,1.44-0.23,2.01
		C48.74,49.7,48.58,49.7,48.42,49.7z M19.67,37.3c9.62,0.05,17.55-7.84,17.6-17.53c0.05-9.62-7.77-17.54-17.53-17.58
		C10.18,2.14,2.2,9.77,2.16,19.7C2.12,29.34,9.85,37.2,19.67,37.3z"/>
</g>
</svg>
