<svg enable-background="new 0 0 44 44" viewBox="0 0 44 44" xmlns="http://www.w3.org/2000/svg"><g fill="#fff"><path d="m19.9 16.8h11.7c1.5 0 1.5-2.4 0-2.4-6.1 0-5.6 0-11.7 0-1.5 0-1.5 2.4 0 2.4z"/><path d="m31.6 21c-6.1 0-5.6 0-11.7 0-1.5 0-1.5 2.4 0 2.4h11.7c1.5 0 1.5-2.4 0-2.4z"/><path d="m31.6 27.2c-6.1 0-5.6 0-11.7 0-1.5 0-1.5 2.4 0 2.4h11.7c1.5-.1 1.5-2.4 0-2.4z"/><path d="m31.6 33.7c-6.1 0-5.6 0-11.7 0-1.5 0-1.5 2.4 0 2.4h11.7c1.5 0 1.5-2.4 0-2.4z"/><path d="m14.7 13-.3.5c-.4.6-.8 1.2-1.2 1.8l-.2-.3c-.4-.5-1.2-.3-1.5.3-.2.3-.1.7.1 1l.2.3c.3.3.6.7 1 1 .2.2.4.2.6.2.4 0 .7-.3.9-.6.3-.9.9-1.8 1.5-2.6.1-.2.3-.4.4-.6.2-.3.2-.6.1-.9-.3-.6-1.2-.6-1.6-.1z"/><path d="m14.1 19.5-.3.5c-.4.6-.8 1.2-1.2 1.8l-.2-.3c-.4-.5-1.2-.3-1.5.3-.2.3-.1.7.1 1l.2.3c.3.3.6.7 1 1 .2.2.4.2.6.2.4 0 .7-.3.9-.6.3-.9.9-1.8 1.5-2.6.1-.2.3-.4.4-.6.2-.3.2-.6.1-.9-.3-.6-1.2-.7-1.6-.1z"/><path d="m14.1 26.1-.3.5c-.4.6-.8 1.2-1.2 1.8l-.2-.3c-.4-.5-1.2-.3-1.5.3-.2.3-.1.7.1 1l.2.3c.3.3.6.7 1 1 .2.2.4.2.6.2.4 0 .7-.3.9-.6.3-.9.9-1.8 1.5-2.6.1-.2.3-.4.4-.6.2-.3.2-.6.1-.9-.3-.5-1.2-.6-1.6-.1z"/><path d="m14.1 32.9-.3.5c-.4.6-.8 1.2-1.2 1.8l-.2-.2c-.4-.5-1.2-.3-1.5.3-.2.3-.1.7.1 1l.2.3c.3.3.6.7 1 1 .2.2.4.2.6.2.4 0 .7-.3.9-.6.3-.9.9-1.8 1.5-2.6.1-.2.3-.4.4-.6.2-.3.2-.6.1-.9-.3-.7-1.2-.7-1.6-.2z"/><path d="m32.4 1h-26.9v42.9h33v-37zm3.3 40h-27.4v-37.2h22.6v4.5h4.8z"/></g></svg>